HIERARCHY
ROOT Hips
{
  OFFSET 53.1736 83.8025 3.25831
  CHANNELS 6 Xposition Yposition Zposition Zrotation Xrotation Yrotation
  JOINT spine
  {
    OFFSET 0 5.95438 0.342407
    CHANNELS 3 Zrotation Xrotation Yrotation
    JOINT spine1
    {
      OFFSET 0 8.85602 0
      CHANNELS 3 Zrotation Xrotation Yrotation
      JOINT spine2
      {
        OFFSET 0 8.48567 0
        CHANNELS 3 Zrotation Xrotation Yrotation
        JOINT Neck
        {
          OFFSET 0 21.7863 1.0387
          CHANNELS 3 Zrotation Xrotation Yrotation
          JOINT Head
          {
            OFFSET 0 6.5822 0
            CHANNELS 3 Zrotation Xrotation Yrotation
            End Site
            {
              OFFSET 0 15.9326 -5.25436
            }
          }
        }
        JOINT RightShoulder
        {
          OFFSET -3.57307 9.16386 -0.497525
          CHANNELS 3 Zrotation Xrotation Yrotation
          JOINT RightArm
          {
            OFFSET 0 12.0192 0
            CHANNELS 3 Zrotation Xrotation Yrotation
            JOINT RightArmRoll
            {
              OFFSET 0 6.06755 0
              CHANNELS 3 Zrotation Xrotation Yrotation
              JOINT RightForeArm
              {
                OFFSET 0 17.6726 0
                CHANNELS 3 Zrotation Xrotation Yrotation
                JOINT RightForeArmRoll
                {
                  OFFSET 0 6.80872 0
                  CHANNELS 3 Zrotation Xrotation Yrotation
                  JOINT RightHand
                  {
                    OFFSET 0 13.6636 0
                    CHANNELS 3 Zrotation Xrotation Yrotation
                    End Site
                    {
                      OFFSET 0 0 0
                    }
                  }
                }
              }
            }
          }
        }
        JOINT LeftShoulder
        {
          OFFSET 3.57307 9.16386 -0.497525
          CHANNELS 3 Zrotation Xrotation Yrotation
          JOINT LeftArm
          {
            OFFSET 0 12.0192 0
            CHANNELS 3 Zrotation Xrotation Yrotation
            JOINT LeftArmRoll
            {
              OFFSET 0 6.06755 0
              CHANNELS 3 Zrotation Xrotation Yrotation
              JOINT LeftForeArm
              {
                OFFSET 0 17.6726 0
                CHANNELS 3 Zrotation Xrotation Yrotation
                JOINT LeftForeArmRoll
                {
                  OFFSET 0 6.80872 0
                  CHANNELS 3 Zrotation Xrotation Yrotation
                  JOINT LeftHand
                  {
                    OFFSET 0 13.6636 0
                    CHANNELS 3 Zrotation Xrotation Yrotation
                    End Site
                    {
                      OFFSET 0 0 0
                    }
                  }
                }
              }
            }
          }
        }
      }
    }
  }
  JOINT RightUpLeg
  {
    OFFSET -5.27774 -0.967797 -0.811858
    CHANNELS 3 Zrotation Xrotation Yrotation
    JOINT RightUpLegRoll
    {
      OFFSET 0 16.0214 0
      CHANNELS 3 Zrotation Xrotation Yrotation
      JOINT RightLeg
      {
        OFFSET 0 -19.8401 0
        CHANNELS 3 Zrotation Xrotation Yrotation
        JOINT RightLegRoll
        {
          OFFSET 0 19.905 0
          CHANNELS 3 Zrotation Xrotation Yrotation
          JOINT RightFoot
          {
            OFFSET 0 16.5675 0
            CHANNELS 3 Zrotation Xrotation Yrotation
            JOINT RightToeBase
            {
              OFFSET 0 13.8496 0
              CHANNELS 3 Zrotation Xrotation Yrotation
              End Site
              {
                OFFSET 0.00587034 6.70728 -0.773117
              }
            }
          }
        }
      }
    }
  }
  JOINT LeftUpLeg
  {
    OFFSET 5.27774 -0.967797 -0.811858
    CHANNELS 3 Zrotation Xrotation Yrotation
    JOINT LeftUpLegRoll
    {
      OFFSET 0 16.0215 0
      CHANNELS 3 Zrotation Xrotation Yrotation
      JOINT LeftLeg
      {
        OFFSET 0 19.84 0
        CHANNELS 3 Zrotation Xrotation Yrotation
        JOINT LeftLegRoll
        {
          OFFSET 0 20.089 0
          CHANNELS 3 Zrotation Xrotation Yrotation
          JOINT LeftFoot
          {
            OFFSET 0 16.3835 0
            CHANNELS 3 Zrotation Xrotation Yrotation
            JOINT LeftToeBase
            {
              OFFSET 0 13.8496 0
              CHANNELS 3 Zrotation Xrotation Yrotation
              End Site
              {
                OFFSET -0.0263083 6.70728 -0.773117
              }
            }
          }
        }
      }
    }
  }
}
MOTION
Frames: 11
Frame Time: 0.00208333
51.2449 97.366 3.91196 2.4917 5.45233 9.38489 -0.502779 -0.48353 0.114461 -1.00696 3.03431 0.285026 -1.01162 4.67924 0.302187 -6.6832 -17.3226 -10.817 11.8425 7.23714 -11.1078 65.4738 -4.26485 -3.06119 118.677 15.9503 -18.2379 6.3271e-007 3.86561e-007 -1.8299e-006 -3.63989 -0.0271028 -1.9925 -1.10423e-005 4.83574e-007 -3.01161 8.03008 -4.95137 0.697621 -48.7543 -7.09906 3.95516 -135.541 15.1209 33.9442 -1.33328e-005 1.05869e-006 9.83134e-007 3.64056 -0.026705 1.99242 4.79161e-006 -8.34693e-007 3.0116 -8.0301 -4.95139 -0.697634 175.26 17.1446 2.15019 180 7.01572e-015 179.037 -179.163 21.9065 178.863 -9.134e-006 1.6893e-006 0.392495 -19.7647 69.3983 20.7739 8.1365 25.2327 -3.48774 173.581 16.7823 7.36294 4.54188e-006 -4.6773e-006 -0.914264 1.48707 -23.2777 1.06227 3.4226e-006 5.51736e-006 -0.223209 18.0773 67.1063 -18.8088 -8.13649 25.2327 3.48774 
51.32 97.1615 3.89882 2.57731 5.39669 9.37547 -0.522139 -0.475571 0.113739 -1.04576 3.05017 0.284479 -1.05047 4.69509 0.302291 -6.43217 -16.9853 -10.7452 11.6221 7.05349 -11.0232 65.6757 -4.2297 -3.05606 118.524 15.9856 -18.1018 6.3271e-007 3.86561e-007 -1.8299e-006 -3.63989 -0.0271028 -1.9925 -1.10423e-005 4.83574e-007 -3.01161 8.03008 -4.95137 0.697621 -48.6122 -7.07714 3.932 -135.655 15.0776 34.0492 -1.33328e-005 1.05869e-006 9.83134e-007 3.64056 -0.026705 1.99242 4.79161e-006 -8.34693e-007 3.0116 -8.0301 -4.95139 -0.697634 175.129 17.0228 2.24743 180 7.01573e-015 179.04 -179.217 21.7172 178.887 -9.134e-006 1.6893e-006 0.390849 -19.7914 69.4303 20.8044 8.1365 25.2327 -3.48774 173.481 16.5762 7.40593 4.54188e-006 -4.6773e-006 -0.908081 1.45212 -22.9689 1.0376 3.4226e-006 5.51736e-006 -0.215538 18.0534 67.0804 -18.7899 -8.13649 25.2327 3.48774 
51.2898 96.949 3.92711 2.66082 5.33829 9.36591 -0.541056 -0.467272 0.113074 -1.08367 3.06671 0.283925 -1.08843 4.71161 0.302374 -6.1837 -16.6488 -10.6751 11.4031 6.8707 -10.9396 65.8755 -4.19498 -3.05113 118.375 16.0214 -17.9681 6.3271e-007 3.86561e-007 -1.8299e-006 -3.63989 -0.0271028 -1.9925 -1.10423e-005 4.83574e-007 -3.01161 8.03008 -4.95137 0.697621 -48.4701 -7.05767 3.91055 -135.767 15.0338 34.1519 -1.33328e-005 1.05869e-006 9.83134e-007 3.64056 -0.026705 1.99242 4.79161e-006 -8.34693e-007 3.0116 -8.0301 -4.95139 -0.697634 175 16.9009 2.34481 180 7.01573e-015 179.044 -179.272 21.5367 178.911 -9.134e-006 1.6893e-006 0.389251 -19.8173 69.4612 20.834 8.1365 25.2327 -3.48774 173.385 16.3707 7.44578 4.54188e-006 -4.6773e-006 -0.902148 1.41829 -22.6688 1.01397 3.4226e-006 5.51736e-006 -0.20816 18.03 67.0552 -18.7717 -8.13649 25.2327 3.48774 
51.3439 96.7385 3.90268 2.74198 5.27813 9.35638 -0.559432 -0.458777 0.112455 -1.1205 3.08364 0.283375 -1.1253 4.72853 0.302444 -5.93968 -16.3136 -10.6067 11.1872 6.68865 -10.8572 66.0716 -4.16096 -3.04641 118.229 16.0577 -17.8383 6.3271e-007 3.86561e-007 -1.8299e-006 -3.63989 -0.0271028 -1.9925 -1.10423e-005 4.83574e-007 -3.01161 8.03008 -4.95137 0.697621 -48.3294 -7.0403 3.89064 -135.876 14.9901 34.2514 -1.33328e-005 1.05869e-006 9.83134e-007 3.64056 -0.026705 1.99242 4.79161e-006 -8.34693e-007 3.0116 -8.0301 -4.95139 -0.697634 174.875 16.7799 2.44121 180 7.01574e-015 179.047 -179.327 21.3653 178.934 -9.134e-006 1.6893e-006 0.387727 -19.8425 69.4911 20.8627 8.1365 25.2327 -3.48774 173.293 16.1677 7.48294 4.54188e-006 -4.6773e-006 -0.896478 1.38578 -22.3788 0.991438 3.4226e-006 5.51736e-006 -0.201091 18.0072 67.0307 -18.754 -8.13649 25.2327 3.48774 
51.3328 96.5404 3.91126 2.82053 5.21725 9.34706 -0.577172 -0.450231 0.111871 -1.15606 3.10068 0.282841 -1.1609 4.74555 0.302506 -5.70199 -15.9803 -10.5401 10.9761 6.50726 -10.7764 66.2621 -4.1279 -3.04188 118.089 16.0946 -17.7132 6.3271e-007 3.86561e-007 -1.8299e-006 -3.63989 -0.0271028 -1.9925 -1.10423e-005 4.83574e-007 -3.01161 8.03008 -4.95137 0.697621 -48.1912 -7.02471 3.87213 -135.981 14.9469 34.347 -1.33328e-005 1.05869e-006 9.83134e-007 3.64056 -0.026705 1.99242 4.79161e-006 -8.34693e-007 3.0116 -8.0301 -4.95139 -0.697634 174.754 16.6612 2.53549 180 7.01575e-015 179.05 -179.382 21.2034 178.957 -9.134e-006 1.6893e-006 0.386301 -19.867 69.52 20.8905 8.1365 25.2327 -3.48774 173.204 15.9692 7.51783 4.54188e-006 -4.6773e-006 -0.891079 1.35479 -22.1007 0.970077 3.4226e-006 5.51736e-006 -0.194347 17.9851 67.007 -18.737 -8.13649 25.2327 3.48774 
51.3547 96.329 3.91868 2.8962 5.15665 9.33815 -0.594181 -0.441776 0.111311 -1.19015 3.11753 0.282331 -1.19504 4.76239 0.30257 -5.47249 -15.6494 -10.4756 10.7712 6.32643 -10.6975 66.4451 -4.09606 -3.03754 117.956 16.132 -17.5943 6.3271e-007 3.86561e-007 -1.8299e-006 -3.63989 -0.0271028 -1.9925 -1.10423e-005 4.83574e-007 -3.01161 8.03008 -4.95137 0.697621 -48.0571 -7.01056 3.85483 -136.08 14.9049 34.4376 -1.33328e-005 1.05869e-006 9.83134e-007 3.64056 -0.026705 1.99242 4.79161e-006 -8.34693e-007 3.0116 -8.0301 -4.95139 -0.697634 174.639 16.546 2.62655 180 7.01575e-015 179.053 -179.436 21.0511 178.979 -9.134e-006 1.6893e-006 0.384997 -19.8908 69.5479 20.9175 8.13649 25.2327 -3.48774 173.119 15.7774 7.55089 4.54188e-006 -4.6773e-006 -0.885963 1.32553 -21.8361 0.949952 3.4226e-006 5.51736e-006 -0.187944 17.9639 66.9841 -18.7206 -8.13649 25.2327 3.48774 
51.3429 96.1132 3.93174 2.96874 5.09736 9.32981 -0.610362 -0.433559 0.110763 -1.22259 3.13391 0.281858 -1.22752 4.77876 0.302642 -5.25305 -15.3214 -10.4131 10.5744 6.14603 -10.6208 66.6189 -4.06572 -3.03339 117.832 16.1701 -17.4825 6.3271e-007 3.86561e-007 -1.8299e-006 -3.63989 -0.0271028 -1.9925 -1.10423e-005 4.83574e-007 -3.01161 8.03008 -4.95137 0.697621 -47.9283 -6.99752 3.8386 -136.174 14.8645 34.5225 -1.33328e-005 1.05869e-006 9.83134e-007 3.64056 -0.026705 1.99242 4.79161e-006 -8.34693e-007 3.0116 -8.0301 -4.95139 -0.697634 174.529 16.4355 2.71325 180 7.01576e-015 179.056 -179.486 20.9088 179 -9.134e-006 1.6893e-006 0.38384 -19.9138 69.5747 20.9436 8.13649 25.2327 -3.48774 173.038 15.5941 7.58255 4.54188e-006 -4.6773e-006 -0.88114 1.29818 -21.5866 0.931128 3.4226e-006 5.51736e-006 -0.181899 17.9436 66.962 -18.7049 -8.13649 25.2327 3.48774 
51.3807 95.8865 3.93785 3.03789 5.04038 9.32223 -0.625619 -0.425721 0.110218 -1.25317 3.14954 0.28143 -1.25814 4.79438 0.302728 -5.04553 -14.9971 -10.3528 10.3871 5.96599 -10.5465 66.7815 -4.03712 -3.02943 117.718 16.2088 -17.3792 6.3271e-007 3.86561e-007 -1.8299e-006 -3.63989 -0.0271028 -1.9925 -1.10423e-005 4.83574e-007 -3.01161 8.03008 -4.95137 0.697621 -47.8061 -6.98526 3.82325 -136.261 14.8262 34.6006 -1.33328e-005 1.05869e-006 9.83134e-007 3.64056 -0.026705 1.99242 4.79161e-006 -8.34693e-007 3.0116 -8.0301 -4.95139 -0.697634 174.425 16.331 2.79448 180 7.01576e-015 179.059 -179.531 20.7768 179.018 -9.134e-006 1.6893e-006 0.382854 -19.9362 69.6005 20.9688 8.13649 25.2327 -3.48774 172.961 15.4215 7.61321 4.54188e-006 -4.6773e-006 -0.876622 1.27293 -21.3538 0.91367 3.4226e-006 5.51736e-006 -0.176229 17.9244 66.9409 -18.6899 -8.13649 25.2327 3.48774 
51.3634 95.6693 3.94612 3.10339 4.98674 9.31559 -0.639858 -0.418408 0.109663 -1.28171 3.16412 0.281059 -1.28672 4.80895 0.302837 -4.85179 -14.6767 -10.2949 10.211 5.7862 -10.4749 66.9313 -4.01055 -3.02565 117.616 16.2482 -17.2854 6.3271e-007 3.86561e-007 -1.8299e-006 -3.63989 -0.0271028 -1.9925 -1.10423e-005 4.83574e-007 -3.01161 8.03008 -4.95137 0.697621 -47.6919 -6.97344 3.80863 -136.339 14.7905 34.6712 -1.33328e-005 1.05869e-006 9.83134e-007 3.64056 -0.026705 1.99242 4.79161e-006 -8.34693e-007 3.0116 -8.0301 -4.95139 -0.697634 174.329 16.2337 2.86914 180 7.01577e-015 179.061 -179.572 20.6553 179.035 -9.134e-006 1.6893e-006 0.382065 -19.9578 69.6253 20.9931 8.13649 25.2327 -3.48774 172.887 15.2615 7.6433 4.54188e-006 -4.6773e-006 -0.872417 1.25 -21.1394 0.897643 3.4226e-006 5.51736e-006 -0.17095 17.9064 66.9208 -18.6756 -8.13649 25.2327 3.48774 
51.3741 95.4351 3.93586 3.16498 4.93746 9.31007 -0.65298 -0.411764 0.109089 -1.30802 3.17737 0.280756 -1.31306 4.82218 0.302976 -4.67368 -14.361 -10.2393 10.0477 5.60656 -10.4064 67.0664 -3.98625 -3.02205 117.527 16.2882 -17.2023 6.3271e-007 3.86561e-007 -1.8299e-006 -3.63989 -0.0271028 -1.9925 -1.10423e-005 4.83574e-007 -3.01161 8.03008 -4.95137 0.697621 -47.5871 -6.96172 3.79458 -136.409 14.7579 34.7334 -1.33328e-005 1.05869e-006 9.83134e-007 3.64056 -0.026705 1.99242 4.79161e-006 -8.34693e-007 3.0116 -8.0301 -4.95139 -0.697634 174.241 16.1448 2.93611 180 7.01577e-015 179.064 -179.606 20.5446 179.05 -9.134e-006 1.6893e-006 0.381496 -19.9786 69.649 21.0166 8.13649 25.2327 -3.48774 172.816 15.1162 7.67324 4.54188e-006 -4.6773e-006 -0.868538 1.22956 -20.9451 0.88311 3.4226e-006 5.51736e-006 -0.166079 17.8898 66.9018 -18.6619 -8.13649 25.2327 3.48774 
51.3587 95.1776 3.93249 3.22242 4.89354 9.30583 -0.664892 -0.405932 0.108483 -1.33189 3.18899 0.28053 -1.33696 4.8338 0.303151 -4.51306 -14.0505 -10.1861 9.89892 5.42696 -10.3411 67.1849 -3.96451 -3.01863 117.453 16.3289 -17.1312 6.3271e-007 3.86561e-007 -1.8299e-006 -3.63989 -0.0271028 -1.9925 -1.10423e-005 4.83574e-007 -3.01161 8.03008 -4.95137 0.697621 -47.4929 -6.94979 3.78093 -136.469 14.729 34.7862 -1.33328e-005 1.05869e-006 9.83134e-007 3.64056 -0.026705 1.99242 4.79161e-006 -8.34693e-007 3.0116 -8.0301 -4.95139 -0.697634 174.161 16.0657 2.99428 180 7.01578e-015 179.066 -179.632 20.445 179.062 -9.134e-006 1.6893e-006 0.381173 -19.9988 69.6718 21.0391 8.13649 25.2327 -3.48774 172.749 14.9876 7.70343 4.54188e-006 -4.6773e-006 -0.864995 1.2118 -20.7724 0.870137 3.4226e-006 5.51736e-006 -0.161631 17.8746 66.8838 -18.649 -8.13649 25.2327 3.48774 
